<svg width="53" height="43" viewBox="0 0 53 43" fill="none" xmlns="http://www.w3.org/2000/svg">
<path d="M36.4805 7.61478C36.4805 9.09604 35.8956 10.5187 34.8508 11.5711C32.446 13.9945 30.1139 16.5213 27.6192 18.8568C27.0476 19.3843 26.1405 19.3651 25.5933 18.8137L18.4065 11.5711C16.2343 9.38191 16.2343 5.84766 18.4065 3.65849C20.6002 1.44779 24.1739 1.44779 26.3674 3.65849L26.6287 3.92172L26.8897 3.65864C27.9416 2.59814 29.3741 2 30.8703 2C32.3667 2 33.7991 2.59809 34.8508 3.65849C35.8956 4.71098 36.4805 6.1336 36.4805 7.61478Z" stroke="white" stroke-width="3" stroke-linejoin="round"/>
<path d="M41.4063 41.4063L50.8252 31.9875C51.1022 31.7104 51.2579 31.3345 51.2579 30.9427V18.0088C51.2579 15.9685 49.6038 14.3145 47.5635 14.3145C45.5233 14.3145 43.8692 15.9685 43.8692 18.0088V29.0918" stroke="white" stroke-width="3" stroke-linecap="round" stroke-linejoin="round"/>
<path d="M41.4063 31.5547L43.5197 29.4413C43.7436 29.2174 43.8692 28.914 43.8692 28.5978C43.8692 28.1458 43.6138 27.7328 43.2097 27.5306L42.1188 26.9853C40.2227 26.0371 37.9322 26.4088 36.433 27.9079L34.229 30.112C33.3051 31.0358 32.7862 32.2887 32.7862 33.595V41.4063" stroke="white" stroke-width="3" stroke-linecap="round" stroke-linejoin="round"/>
<path d="M11.8516 41.4063L2.43283 31.9875C2.15568 31.7104 2 31.3345 2 30.9427V18.0088C2 15.9685 3.65401 14.3145 5.69434 14.3145C7.73468 14.3145 9.38868 15.9685 9.38868 18.0088V29.0918" stroke="white" stroke-width="3" stroke-linecap="round" stroke-linejoin="round"/>
<path d="M11.8516 31.5547L9.73808 29.4413C9.51435 29.2174 9.38867 28.914 9.38867 28.5978C9.38867 28.1458 9.64397 27.7328 10.0481 27.5306L11.139 26.9853C13.0353 26.0371 15.3257 26.4088 16.8249 27.9079L19.029 30.112C19.9527 31.0358 20.4717 32.2887 20.4717 33.595V41.4063" stroke="white" stroke-width="3" stroke-linecap="round" stroke-linejoin="round"/>
</svg>
